<svg width="50" height="50" viewBox="0 0 50 50" fill="none" xmlns="http://www.w3.org/2000/svg">
<g clip-path="url(#clip0_8_409)">
<path d="M45.4875 18.45L26.765 9.08251C26.5626 8.98165 26.3398 8.92832 26.1137 8.92659C25.8875 8.92485 25.6639 8.97476 25.46 9.07251L5.26751 18.7425C4.13001 19.2875 4.14001 20.9125 5.28751 21.44L13.5125 25.2125L13.9425 22.7825C14.073 22.0502 14.3943 21.3653 14.874 20.7969C15.3538 20.2284 15.975 19.7966 16.675 19.545C20.2875 18.24 27.6125 16.51 35.215 20.0825C36.4925 20.6825 37.37 21.9025 37.5675 23.3C37.66 23.9475 37.7475 24.5775 37.835 25.19L45.515 21.1075C46.5925 20.5425 46.5775 18.9925 45.4875 18.45Z" fill="#FFA750"/>
<path d="M13.32 39.2675C13.32 39.8443 13.6606 40.4155 14.3223 40.9484C14.9841 41.4814 15.954 41.9656 17.1767 42.3735C18.3994 42.7813 19.851 43.1049 21.4485 43.3256C23.0461 43.5464 24.7583 43.66 26.4875 43.66C28.2167 43.66 29.9289 43.5464 31.5265 43.3256C33.124 43.1049 34.5756 42.7813 35.7983 42.3735C37.0211 41.9656 37.991 41.4814 38.6527 40.9484C39.3144 40.4155 39.655 39.8443 39.655 39.2675C39.655 38.1025 38.2677 36.9853 35.7983 36.1615C33.329 35.3378 29.9797 34.875 26.4875 34.875C22.9953 34.875 19.6461 35.3378 17.1767 36.1615C14.7073 36.9853 13.32 38.1025 13.32 39.2675V39.2675Z" fill="#4BBFFF"/>
<path d="M26.2875 33.9575C33.23 33.9575 38.9375 35.7975 39.5925 38.15H39.6575C39.6575 38.15 38.915 32.9 37.695 24.395C37.51 23.1025 36.6875 21.9725 35.4925 21.4175C28.37 18.11 21.5075 19.71 18.125 20.92C16.79 21.3975 15.8125 22.5375 15.5675 23.92L13.3225 36.4625C14.425 34.5475 19.5525 33.9575 26.2875 33.9575V33.9575Z" fill="#84DDFD"/>
<path d="M4.89001 42.4125H9.45751L7.48751 30.2975L4.89001 42.4125Z" fill="#FFA750"/>
<path d="M47.315 17.0875L26.35 6.67C26.046 6.51719 25.7108 6.43635 25.3705 6.43375C25.0302 6.43115 24.6939 6.50685 24.3875 6.655L7.18003 14.8775V14.415C7.18003 14 6.84503 13.665 6.43003 13.665C6.01503 13.665 5.68003 14 5.68003 14.415V15.595L2.70253 17.0175C1.91003 17.395 1.42253 18.1775 1.42753 19.055C1.43503 19.9325 1.93253 20.7075 2.73003 21.0725L5.59003 22.39V23.9925C5.59003 24.4075 5.92503 24.7425 6.34003 24.7425C6.75503 24.7425 7.09003 24.4075 7.09003 23.9925V23.08L12.6675 25.65L10.535 37.695C10.4225 37.9975 10.36 38.31 10.36 38.64C10.36 42.3875 18.1 44.4075 25.3825 44.4075C32.665 44.4075 40.405 42.385 40.405 38.64C40.405 38.5275 40.3975 38.42 40.3825 38.31C40.4025 38.225 40.41 38.135 40.3975 38.045C40.3975 38.045 39.7425 33.36 38.645 25.6075L47.35 21.08C48.1025 20.69 48.5625 19.92 48.555 19.0725C48.5537 18.659 48.4369 18.254 48.2179 17.9033C47.9988 17.5526 47.6861 17.27 47.315 17.0875V17.0875ZM14.2475 25.3425L14.6775 22.9125C14.8925 21.6925 15.755 20.6725 16.925 20.25C20.4875 18.9625 27.5625 17.315 34.8925 20.76C35.2825 20.9425 35.63 21.1975 35.9175 21.505C36.4068 22.0293 36.722 22.6921 36.82 23.4025L36.8575 23.6625L37.0875 25.2925C37.7475 29.95 38.2525 33.5525 38.565 35.7625C36.5175 34.34 32.9975 33.4225 29.2 33.055C29.1925 33.055 29.185 33.0525 29.1775 33.0525C28.755 33.0125 28.3275 32.9775 27.9 32.95C27.81 32.945 27.7175 32.9375 27.6275 32.9325L27.34 32.9175C27.16 32.9075 26.9775 32.9 26.7975 32.895C26.74 32.8925 26.6825 32.8925 26.625 32.89C26.4725 32.885 26.32 32.88 26.17 32.8775C26.11 32.8775 26.05 32.875 25.9875 32.875C25.7875 32.8725 25.585 32.87 25.385 32.87C25.105 32.87 24.8225 32.875 24.54 32.88C24.3875 32.8825 24.235 32.8875 24.0825 32.8925C24.0275 32.895 23.97 32.8975 23.915 32.8975C19.93 33.035 16.4475 33.72 14.0125 34.7825C13.4275 35.0325 12.895 35.3075 12.4325 35.6075L14.2475 25.3425ZM25.385 42.91C17.645 42.91 11.8625 40.6575 11.8625 38.6425C11.8625 38.505 11.8925 38.365 11.945 38.2275C11.9475 38.22 11.9525 38.215 11.955 38.2075C12.0625 37.945 12.2575 37.6825 12.53 37.4225C14.26 35.815 19.1925 34.3725 25.3825 34.3725H25.385C31.885 34.3725 37.0025 35.9625 38.475 37.665C38.5025 37.6975 38.5275 37.73 38.5525 37.76L38.544 37.7262C38.6231 37.8418 38.6231 37.8418 38.7022 37.9574C38.7475 38.0525 38.775 38.1075 38.7975 38.16L38.805 38.175C38.8275 38.2275 38.845 38.28 38.86 38.3325C38.89 38.435 38.9075 38.5375 38.9075 38.64C38.9075 40.655 33.1225 42.91 25.385 42.91ZM46.66 19.75L38.425 24.035C38.385 23.7575 38.345 23.4775 38.305 23.195C38.0675 21.5275 37.03 20.11 35.53 19.405C27.71 15.73 20.1975 17.475 16.415 18.8425C14.74 19.4475 13.51 20.9075 13.2 22.655L12.94 24.1275L7.09003 21.4325C7.08779 21.2352 7.00773 21.0468 6.86728 20.9082C6.72683 20.7696 6.53734 20.6921 6.34003 20.6925C6.15753 20.6925 5.99253 20.76 5.86253 20.8675L3.35503 19.7125C2.96003 19.53 2.92503 19.155 2.92503 19.045C2.92503 18.935 2.95253 18.56 3.34503 18.3725L5.67503 17.26V19.0825C5.67503 19.4975 6.01003 19.8325 6.42503 19.8325C6.84003 19.8325 7.17503 19.4975 7.17503 19.0825V16.54L25.03 8.0075C25.1312 7.95884 25.2421 7.93399 25.3544 7.93486C25.4666 7.93572 25.5771 7.96229 25.6775 8.0125L46.6425 18.43C46.7655 18.4897 46.8692 18.5827 46.9417 18.6986C47.0142 18.8144 47.0526 18.9483 47.0525 19.085C47.06 19.37 46.9125 19.62 46.66 19.75V19.75Z" fill="#333333"/>
<path d="M7.07752 26.535C7.00752 26.185 6.70252 25.9325 6.34502 25.93H6.34002C5.98502 25.93 5.67752 26.18 5.60502 26.5275L2.31502 42.2575C2.27002 42.4775 2.32502 42.7075 2.46752 42.885C2.53784 42.9717 2.62663 43.0416 2.7274 43.0896C2.82817 43.1376 2.93839 43.1625 3.05002 43.1625H9.46002C9.68502 43.1625 9.89752 43.0625 10.04 42.8875C10.1825 42.715 10.24 42.485 10.195 42.265L7.07752 26.535V26.535ZM3.97252 41.6625L6.32252 30.44L8.54752 41.6625H3.97252V41.6625Z" fill="#333333"/>
</g>
<defs>
<clipPath id="clip0_8_409">
<rect width="50" height="50" fill="white"/>
</clipPath>
</defs>
</svg>
